<?xml version="1.0" encoding="utf-8"?>
<!-- Generator: Adobe Illustrator 18.0.0, SVG Export Plug-In . SVG Version: 6.00 Build 0)  -->
<!DOCTYPE svg PUBLIC "-//W3C//DTD SVG 1.1//EN" "http://www.w3.org/Graphics/SVG/1.1/DTD/svg11.dtd">
<svg version="1.1" id="Layer_1" xmlns="http://www.w3.org/2000/svg" xmlns:xlink="http://www.w3.org/1999/xlink" x="0px" y="0px"
	 viewBox="0 0 595.3 419.5" style="enable-background:new 0 0 595.3 419.5;" xml:space="preserve">
<path style="fill:#FFFFFF;stroke:#009FE3;stroke-width:2;stroke-miterlimit:10;" d="M298.9,341c52.3,0,104.7,0,157,0
	c2.5,0,5-0.1,7.5-0.3c29.5-2.7,52.1-22.6,58.3-51.2c5.7-26.5-7.1-54.4-32-67.8c-8.4-4.5-17.7-7.5-26.9-10.4c-4.5-1.4-5.1-3.5-5-7.9
	c0.3-15.4,2.6-30.9-1.8-46.1c-10-34.4-31.7-57.9-66-68.1c-34.9-10.3-66-1.7-92.7,22.9c-11.6,10.7-18.7,24.5-26.1,38.1
	c-1.9,3.4-3.8,4-7.5,3.3c-10-1.8-20.1-4.6-30-4.2c-25.5,0.9-44.6,13.4-55.7,36.6c-3.9,8-6.4,16.7-9.3,25.2c-1,3-2.4,4.2-5.7,3.9
	c-8.6-0.8-17.2-2-25.9-1.9c-39.4,0.6-69.4,39.5-60.3,77.7c7.2,30.2,32.4,50.1,63.7,50.2C193.3,341.1,246.1,341,298.9,341z"/>
</svg>
